<?xml version="1.0" encoding="utf-8" ?><svg xmlns="http://www.w3.org/2000/svg" xmlns:xlink="http://www.w3.org/1999/xlink" width="1166" height="666" viewBox="0 0 1166 666"><defs><linearGradient id="gradient_0" gradientUnits="userSpaceOnUse" x1="748.21667" y1="369.53412" x2="741.02753" y2="326.14401"><stop offset="0" stop-color="#373637"/><stop offset="1" stop-color="#838283"/></linearGradient></defs><path fill="url(#gradient_0)" transform="scale(0.86756 0.867188)" d="M720.017 329.353C731.072 327.779 745.241 327.504 756.321 327.473C799.654 327.325 842.813 332.967 884.653 344.249C882.897 347.694 877.529 346.815 874.233 350.346C809.12 336.719 744.392 332.041 678.779 348.407C659.697 353.167 639.095 362.025 621.001 369.911C614.257 367.13 612.145 367.007 605.077 366.846C634.986 350.771 670.458 336.323 704.152 331.605C708.681 330.396 715.342 329.577 720.017 329.353Z"/><path fill="#949393" transform="scale(0.86756 0.867188)" d="M704.152 331.605C708.681 330.396 715.342 329.577 720.017 329.353C716.59 332.56 712.67 336.35 707.485 334.193L708.17 334.034C706.854 333.552 704.595 333.03 704.152 331.605Z"/><path fill="#333233" transform="scale(0.86756 0.867188)" d="M884.653 344.249C893.366 346.415 926.306 355.08 931.574 360.122L931.427 361.342C925.387 363.787 883.559 352.223 874.233 350.346C877.529 346.815 882.897 347.694 884.653 344.249Z"/><defs><linearGradient id="gradient_1" gradientUnits="userSpaceOnUse" x1="192.38152" y1="613.38409" x2="182.43372" y2="544.4422"><stop offset="0" stop-color="#929191"/><stop offset="1" stop-color="#D0CFCF"/></linearGradient></defs><path fill="url(#gradient_1)" transform="scale(0.86756 0.867188)" d="M240.3 495.315C238.173 499.139 234.182 505.614 233.295 509.502C248.704 510.749 287.671 503.635 284.341 528.757C283.027 538.665 277.254 549.682 272.862 558.628C257.533 590.595 250.915 602.562 210.425 604.145C206.118 604.86 192.674 602.743 189.424 604.151C175.51 610.182 160.989 616.888 146.804 622.26C149.188 616.189 151.922 609.969 154.47 603.943C141.368 604.58 123.183 605.852 110.97 600.938C91.5425 593.119 109.703 564.603 115.597 552.705C134.409 507.268 152.362 509.845 196.366 509.524C198.354 509.2 197.612 509.521 199.15 508.015L201.185 502.807C201.933 497.946 210.463 500.91 214.367 500.521C223.128 499.649 231.781 497.474 240.3 495.315ZM211.876 554.368C208.242 561.747 204.819 568.597 201.707 576.232C229.326 576.684 227.575 578.105 240.317 553.905C242.281 549.594 247.801 539.806 239.928 537.644C234.752 536.222 225.906 537.247 220.388 537.543C217.512 543.132 214.674 548.74 211.876 554.368ZM167.225 575.906C170.725 568.277 174.664 559.21 178.621 551.915L185.305 537.383C163.868 536.497 158.029 535.349 148.03 556.663C145.411 561.942 140.64 569.746 144.728 574.935C149.106 577.346 161.661 576.106 167.225 575.906Z"/><path fill="#E8E7E7" transform="scale(0.86756 0.867188)" d="M240.3 495.315C238.173 499.139 234.182 505.614 233.295 509.502C248.704 510.749 287.671 503.635 284.341 528.757C283.027 538.665 277.254 549.682 272.862 558.628C266.981 550.498 250.493 554.838 240.979 553.969L240.317 553.905C242.281 549.594 247.801 539.806 239.928 537.644C234.752 536.222 225.906 537.247 220.388 537.543C217.512 543.132 214.674 548.74 211.876 554.368C205.557 553.821 183.408 553.252 178.621 551.915L185.305 537.383C163.868 536.497 158.029 535.349 148.03 556.663L142.971 552.599C137.037 552.368 119.144 554.214 115.597 552.705C134.409 507.268 152.362 509.845 196.366 509.524C198.354 509.2 197.612 509.521 199.15 508.015L201.185 502.807C201.933 497.946 210.463 500.91 214.367 500.521C223.128 499.649 231.781 497.474 240.3 495.315Z"/><path fill="#333233" transform="scale(0.86756 0.867188)" d="M240.3 495.315C238.173 499.139 234.182 505.614 233.295 509.502C232.857 508.273 232.787 507.794 231.87 506.835C223.452 508.303 199.701 517.707 191.503 521.049C193.215 517.553 194.986 514.086 196.814 510.65L196.366 509.524C198.354 509.2 197.612 509.521 199.15 508.015L201.185 502.807C201.933 497.946 210.463 500.91 214.367 500.521C223.128 499.649 231.781 497.474 240.3 495.315Z"/><path fill="#E8E7E7" transform="scale(0.86756 0.867188)" d="M201.185 502.807C204.703 499.433 210.242 500.67 215.664 500.653C210.352 503.695 205.234 506.895 199.15 508.015L201.185 502.807Z"/><defs><linearGradient id="gradient_2" gradientUnits="userSpaceOnUse" x1="373.63544" y1="604.97662" x2="365.03647" y2="506.6691"><stop offset="0" stop-color="#BEBDBC"/><stop offset="1" stop-color="#FCFBFB"/></linearGradient></defs><path fill="url(#gradient_2)" transform="scale(0.86756 0.867188)" d="M291.503 556.729C299.518 539.662 308.741 518.447 327.939 511.509C334.221 509.238 340.808 508.045 347.442 507.415C361.522 506.079 425.669 504.825 436.318 510.103C439.94 511.899 442.686 514.433 443.937 518.341C448.425 532.356 436.265 551.483 430.309 563.547C427.315 569.612 424.696 575.883 421.531 581.86C418.581 587.43 413.271 596.543 407.711 599.619C390.419 615.603 355.971 611.467 333.975 611.826C278.105 612.739 262.212 611.255 291.503 556.729ZM371.933 584.404C372.892 584.341 379.216 583.291 378.896 583.237C390.395 584.247 408.023 543.675 404.963 538.269C400.587 530.54 348.753 533.698 340.886 536.679C333.675 539.412 329.639 549.798 326.862 555.808C323.547 562.374 317.399 572.654 318.457 579.686C322.576 587.949 362.092 583.265 371.933 584.404Z"/><defs><linearGradient id="gradient_3" gradientUnits="userSpaceOnUse" x1="334.19739" y1="617.99469" x2="346.57004" y2="560.82593"><stop offset="0" stop-color="#9C9B9B"/><stop offset="1" stop-color="#CBC9C9"/></linearGradient></defs><path fill="url(#gradient_3)" transform="scale(0.86756 0.867188)" d="M291.503 556.729C291.801 558.235 292.014 558.329 293.086 559.517C295.281 559.372 296.718 555.643 298.438 554.907C305.185 552.019 320.416 554.6 326.862 555.808C323.547 562.374 317.399 572.654 318.457 579.686C322.576 587.949 362.092 583.265 371.933 584.404C370.619 596.339 383.338 592.041 385.435 594.024C382.792 594.94 381.066 594.705 378.277 594.605C378.368 594.685 398.683 602.172 400.887 603.116C403.749 601.112 404.52 599.899 407.711 599.619C390.419 615.603 355.971 611.467 333.975 611.826C278.105 612.739 262.212 611.255 291.503 556.729Z"/><path fill="#E8E7E7" transform="scale(0.86756 0.867188)" d="M315.207 410.929C352.122 403.305 393.115 401.078 430.596 399.079C443.01 398.417 488.039 398.868 497.101 395.964C517.544 389.412 553.344 366.561 573.768 355.688C646.5 316.968 695.929 300.703 778.344 303.207C807.735 303.826 837.007 307.137 865.793 313.099C870.366 319.593 871.453 324.002 877.413 331.685C872.231 330.513 858.088 326.921 853.636 328.153C836.276 325.821 819.131 321.552 801.633 320.252C768.47 317.788 731.58 316.67 698.848 323.038C638.447 334.789 580.805 365.451 529.697 398.542C541.798 398.476 545.405 397.763 555.203 389.893C569.308 378.563 584.616 369.625 603.537 372.791C609.6 373.73 619.19 374.529 618.095 383.543C616.424 397.299 595.118 396.847 584.943 400.401C607.15 401.811 626.419 401.599 648.498 402.044L756.748 403.703C754.662 407.028 745.766 409.662 742.108 410.756C734.22 413.117 724.172 411.123 717.189 412.294C698.134 412.612 678.622 411.707 659.544 411.682C593.053 411.236 526.56 411.69 460.081 413.045C433.061 413.84 406.066 415.354 379.126 417.588C368.122 418.589 346.081 421.918 336.108 422.135C327.344 421.423 318.706 423.689 309.855 424.691C306.96 421.404 304.427 418.116 301.738 414.668C306.287 413.984 311.556 413.604 315.207 410.929Z"/><path fill="#E8E7E7" transform="scale(0.86756 0.867188)" d="M476.344 507.345L544.015 507.257C588.446 507.217 613.649 503 585.141 555.726C579.156 565.502 574.224 574.016 563.439 579.278C548.302 586.662 530.668 585.091 514.249 584.918C500.901 584.77 487.551 584.767 474.202 584.907C472.855 587.776 465.401 604.009 464.126 605.923L461.609 611.967L426.813 611.743C427.841 609.105 428.829 606.967 430.049 604.408C431.074 601.858 432.396 599.148 433.61 596.662C440.736 582.071 447.301 566.982 454.901 552.637C461.085 538.246 469.268 521.364 476.344 507.345ZM488.611 554.341C488.329 555.336 488.17 556.346 487.977 557.365C490.704 559.422 539.026 557.878 545.49 557.63C547.769 556.443 550.103 554.303 552.107 552.611C554.655 548.359 560.36 540.575 556.074 536.076C548.043 533.116 508.779 534.268 498.537 534.377L488.611 554.341Z"/><defs><linearGradient id="gradient_4" gradientUnits="userSpaceOnUse" x1="507.35138" y1="603.41663" x2="506.4986" y2="553.14368"><stop offset="0" stop-color="#908F8F"/><stop offset="1" stop-color="#CAC8C8"/></linearGradient></defs><path fill="url(#gradient_4)" transform="scale(0.86756 0.867188)" d="M430.049 604.408C431.074 601.858 432.396 599.148 433.61 596.662C440.736 582.071 447.301 566.982 454.901 552.637C458.475 554.298 481.91 553.763 488.611 554.341C488.329 555.336 488.17 556.346 487.977 557.365C490.704 559.422 539.026 557.878 545.49 557.63C547.769 556.443 550.103 554.303 552.107 552.611C557.639 555.34 578.199 551.73 585.141 555.726C579.156 565.502 574.224 574.016 563.439 579.278C548.302 586.662 530.668 585.091 514.249 584.918C500.901 584.77 487.551 584.767 474.202 584.907C472.855 587.776 465.401 604.009 464.126 605.923L461.609 611.967L426.813 611.743C427.841 609.105 428.829 606.967 430.049 604.408Z"/><path fill="#949393" transform="scale(0.86756 0.867188)" d="M426.813 611.743C427.841 609.105 428.829 606.967 430.049 604.408C437.816 607.099 455.585 603.388 463.291 605.368L463.474 605.881L464.126 605.923L461.609 611.967L426.813 611.743Z"/><path fill="#CA2E2E" transform="scale(0.86756 0.867188)" d="M854.377 448.935L855.358 449.445C854.702 450.328 830.883 467.307 827.578 469.805C815.158 479.192 802.879 488.127 790.966 498.445C775.118 512.172 760.268 526.776 745.211 541.351C730.368 555.72 715.568 570.147 700.886 584.678C692.122 593.35 683.907 603.082 675.046 611.554C668.132 612.009 657.322 611.758 650.1 611.785L649.76 603.54L649.653 581.086C660.153 571.649 670.23 564.489 681.769 556.493C681.722 560.269 681.494 564.234 681.338 568.023C688.68 561.689 696.157 552.652 703.767 545.529C729.976 520.999 757.449 494.703 788.637 476.524C793.298 473.807 805.174 469.603 810.39 467.406C825.008 461.248 840.025 455.697 854.377 448.935Z"/><defs><linearGradient id="gradient_5" gradientUnits="userSpaceOnUse" x1="1012.0162" y1="596.53937" x2="995.57007" y2="511.7876"><stop offset="0" stop-color="#D2D2D2"/><stop offset="1" stop-color="#FBFAFA"/></linearGradient></defs><path fill="url(#gradient_5)" transform="scale(0.86756 0.867188)" d="M905.509 611.81C921.444 593.21 937.524 574.734 953.746 556.382C983.047 522.903 994.355 501.262 1042.97 507.069C1051.59 508.098 1098.8 505.262 1102.31 508.047L1101.62 510.226C1100.47 512.714 1097.88 518.656 1096.48 520.658C1092.62 518.42 1086.99 521.365 1083.36 519.537C1073.6 524.083 1065.2 532.122 1055.75 537.254C1055.13 537.141 1054.52 537.028 1053.9 536.915C1053.86 535.829 1053.76 535.866 1053.15 534.94C1049.16 533.772 1025.53 535.069 1020.27 534.919C1006.99 534.541 991.683 556.714 983.303 566.507L944.71 611.682L905.509 611.81Z"/><path fill="#606061" transform="scale(0.86756 0.867188)" d="M1083.36 519.537C1088.31 516.319 1096.24 512.726 1101.62 510.226C1100.47 512.714 1097.88 518.656 1096.48 520.658C1092.62 518.42 1086.99 521.365 1083.36 519.537Z"/><defs><linearGradient id="gradient_6" gradientUnits="userSpaceOnUse" x1="1177.7269" y1="474.86588" x2="939.71838" y2="349.27023"><stop offset="0" stop-color="#747374"/><stop offset="1" stop-color="#9D9C9D"/></linearGradient></defs><path fill="url(#gradient_6)" transform="scale(0.86756 0.867188)" d="M961.549 337.637C974.418 341.483 988.695 346.906 1001.36 351.526L1071.78 377.524C1121.96 395.772 1167.59 411.774 1221.4 397.331C1215.14 402.853 1207.84 409.705 1199.98 412.709C1181.58 419.736 1162.56 419.365 1143.15 420.312C1087.09 423.046 1026.69 420.343 974.086 442.94C967.314 445.849 958.659 451.729 952.457 455.841L951.694 455.775C952.843 453.744 957.234 450.334 959.142 448.746C1007.49 408.538 1079.17 410.665 1138.56 408.728C1130.56 406.042 1120.95 403.967 1112.68 401.752C1102.11 398.856 1091.63 395.675 1081.23 392.214C1066.96 387.531 962.625 348.015 959.149 349.11L959.473 349.389L960.15 349.061L960.456 349.135L960.57 349.98C968.474 353.372 978.862 357.44 986.348 361.249C983.086 363.847 979.906 363.682 976.869 365.907C963.845 360.472 951.233 355.119 937.932 350.372C949.438 337.095 957.409 341.395 961.549 337.637Z"/><path fill="#E8E7E7" transform="scale(0.86756 0.867188)" d="M627.071 506.799C645.076 506.652 663.083 506.651 681.088 506.797C681.416 520.448 683.132 534.113 683.285 548.067C675.775 554.824 657.367 568.252 648.953 574.343C648.847 562.144 648.194 549.956 646.994 537.816C641.017 549.615 635.138 561.464 629.356 573.361C623.218 586.024 617.153 598.723 611.161 611.457L576.032 611.643C581.505 599.269 588.304 586.212 594.283 573.962L627.071 506.799Z"/><defs><linearGradient id="gradient_7" gradientUnits="userSpaceOnUse" x1="1144.4526" y1="611.36627" x2="1145.7312" y2="506.58694"><stop offset="0" stop-color="#CBCBCB"/><stop offset="1" stop-color="#FCFBFB"/></linearGradient></defs><path fill="url(#gradient_7)" transform="scale(0.86756 0.867188)" d="M1067.07 611.743C1094.54 585.654 1121.85 557.385 1148.77 530.656C1153.27 526.182 1168.14 511.767 1172.91 509.555C1181.46 505.595 1206.64 506.674 1216.46 506.713C1218.47 521.218 1221.04 537.713 1222.2 552.216L1221.5 552.995C1219.19 552.866 1217.37 552.727 1215.08 552.324C1205.56 550.644 1194.85 553.112 1185.23 553.426C1184.36 547.073 1183.61 540.705 1182.98 534.324C1155.97 559.489 1132.09 585.892 1105.94 611.664C1093.86 612.093 1079.31 611.712 1067.07 611.743Z"/><defs><linearGradient id="gradient_8" gradientUnits="userSpaceOnUse" x1="939.58569" y1="131.25443" x2="958.60126" y2="79.937096"><stop offset="0" stop-color="#AEACAC"/><stop offset="1" stop-color="#F5F5F5"/></linearGradient></defs><path fill="url(#gradient_8)" transform="scale(0.86756 0.867188)" d="M845.631 67.6055C927.359 62.8989 1015.46 89.0289 1077.6 143.35C1076.62 147.676 1068.12 152.562 1064.63 155.967C1009.9 111.783 953.715 91.5638 883.59 85.8422C868.306 84.5951 854.721 85.8281 840.379 85.2482C833.937 83.5007 819.285 86.6117 815.998 85.6902C818.078 81.8695 820.432 77.3355 822.717 73.7743C826.74 67.503 831.533 69.0305 837.615 68.8968C839.17 68.8626 843.907 67.9391 845.631 67.6055Z"/><path fill="#CA2E2E" transform="scale(0.86756 0.867188)" d="M1017.9 179.045C1026.73 172.835 1035.43 166.437 1043.99 159.853C1073.28 179.826 1107.24 226.441 1117.76 260.199C1107.05 263.699 1096.31 267.084 1085.54 270.353C1082.79 268.054 1081.16 268.432 1077.44 268.233C1063.83 229.241 1046.97 207.271 1017.9 179.045Z"/><path fill="#CA2E2E" transform="scale(0.86756 0.867188)" d="M1120.83 270.591L1121.91 270.906C1123.77 274.555 1125.39 282.874 1126.49 287.198C1135.35 321.843 1133.78 346.773 1129.87 381.325C1121.46 379.159 1111.56 375.828 1103.14 373.194L1088.51 368.006C1092.01 332.144 1090.04 315.313 1081.9 280.666C1094.82 277.084 1107.8 273.725 1120.83 270.591Z"/><defs><linearGradient id="gradient_9" gradientUnits="userSpaceOnUse" x1="531.38354" y1="332.58908" x2="473.83453" y2="215.86983"><stop offset="0" stop-color="#242424"/><stop offset="1" stop-color="#444343"/></linearGradient></defs><path fill="url(#gradient_9)" transform="scale(0.86756 0.867188)" d="M581.684 161.103C583.373 164.74 587.832 173.407 588.915 176.59C516.419 231.078 460.9 296.126 433.305 383.576C429.529 383.827 423.499 384.82 420.965 381.719C420.609 380.813 420.335 379.579 420.594 378.623C445.086 288.229 508.681 216.515 581.684 161.103Z"/><defs><linearGradient id="gradient_10" gradientUnits="userSpaceOnUse" x1="1200.8058" y1="609.77386" x2="1214.5095" y2="552.05701"><stop offset="0" stop-color="#979696"/><stop offset="1" stop-color="#D8D7D7"/></linearGradient></defs><path fill="url(#gradient_10)" transform="scale(0.86756 0.867188)" d="M1222.2 552.216C1223.44 557.428 1229.47 599.462 1229.04 603.051C1229.54 604.768 1230.09 609.098 1230.39 611.065C1218.85 611.889 1205.67 611.548 1193.91 611.623L1124.24 611.796C1130.93 603.999 1142.79 591.451 1150.28 584.725C1162.12 584.674 1173.97 584.735 1185.82 584.907L1187.34 584.158C1188.57 580.384 1185.64 559.137 1185.23 553.426C1194.85 553.112 1205.56 550.644 1215.08 552.324C1217.37 552.727 1219.19 552.866 1221.5 552.995L1222.2 552.216Z"/><defs><linearGradient id="gradient_11" gradientUnits="userSpaceOnUse" x1="1138.4939" y1="587.62463" x2="1196.2656" y2="619.85657"><stop offset="0" stop-color="#868584"/><stop offset="1" stop-color="#A2A1A1"/></linearGradient></defs><path fill="url(#gradient_11)" transform="scale(0.86756 0.867188)" d="M1150.28 584.725C1162.12 584.674 1173.97 584.735 1185.82 584.907L1185.03 586.09C1189.13 591.104 1206.47 594.203 1208.07 598.762C1208.57 600.204 1202.78 608.063 1201.06 610.462C1205.09 610.486 1226.91 611.233 1228.81 609.429C1228.96 607.471 1228.81 607.162 1228.36 605.211L1229.04 603.051C1229.54 604.768 1230.09 609.098 1230.39 611.065C1218.85 611.889 1205.67 611.548 1193.91 611.623L1124.24 611.796C1130.93 603.999 1142.79 591.451 1150.28 584.725Z"/><defs><linearGradient id="gradient_12" gradientUnits="userSpaceOnUse" x1="1020.1035" y1="173.14172" x2="902.65063" y2="108.22065"><stop offset="0" stop-color="#8A898A"/><stop offset="1" stop-color="#B2B0B0"/></linearGradient></defs><path fill="url(#gradient_12)" transform="scale(0.86756 0.867188)" d="M905.416 103.19C954.332 110.571 993.173 126.166 1034.77 152.611C1022.98 161.353 1010.1 172.166 999.01 181.804C995.131 184.938 991.161 187.959 987.106 190.864C993.224 183.862 999.252 176.781 1005.19 169.624C976.004 145.539 930.72 129.55 893.536 122.828C897.381 116.213 901.341 109.666 905.416 103.19Z"/><defs><linearGradient id="gradient_13" gradientUnits="userSpaceOnUse" x1="860.32898" y1="601.08289" x2="831.59564" y2="556.95032"><stop offset="0" stop-color="#949393"/><stop offset="1" stop-color="#CECDCD"/></linearGradient></defs><path fill="url(#gradient_13)" transform="scale(0.86756 0.867188)" d="M869.399 551.207C869.859 553.345 870.247 556.753 871.739 558.022C873.916 557.731 873.793 557.313 875.651 555.719C878.389 555.885 877.85 555.445 879.676 556.942C880.954 560.472 878.595 560.986 880.222 564.148L880.712 563.759C880.904 559.685 881.039 558.634 878.99 554.957C880.665 554.244 882.17 554.561 884.034 554.693C886.622 559.465 886.738 573.974 892.041 576.377C874.877 592.852 852.392 615.004 826.443 611.191C821.066 612.28 796.309 611.81 789.25 611.772C793.209 602.642 797.406 593.616 801.836 584.704C810.078 584.637 818.32 584.704 826.559 584.905C840.81 584.789 839.792 580.444 835.663 568.7C834.299 564.823 833.046 560.045 831.932 556.021C843.233 548.706 856.071 557.18 869.399 551.207Z"/><path fill="#949393" transform="scale(0.86756 0.867188)" d="M801.836 584.704C810.078 584.637 818.32 584.704 826.559 584.905C806.885 586.309 820.356 591.843 815.24 602.855C813.702 604.299 810.972 604.673 808.791 605.218C809.924 608.137 812.53 607.314 815.261 611.077C818.781 610.955 823.028 610.641 826.443 611.191C821.066 612.28 796.309 611.81 789.25 611.772C793.209 602.642 797.406 593.616 801.836 584.704Z"/><defs><linearGradient id="gradient_14" gradientUnits="userSpaceOnUse" x1="1003.166" y1="434.73141" x2="859.651" y2="358.66052"><stop offset="0" stop-color="#7E7E7E"/><stop offset="1" stop-color="#B1B0AF"/></linearGradient></defs><path fill="url(#gradient_14)" transform="scale(0.86756 0.867188)" d="M986.348 361.249C1004.06 369.853 1017.15 378.859 1033.7 387.412C1000.64 388.398 972.69 392.843 940.183 399.144C928.682 401.373 912.311 403.456 901.485 406.374C925.83 408.413 951.986 411.714 975.95 413.179C963.08 414.74 951.989 414.133 939.194 414.32C916.745 414.646 894.278 413.717 871.894 413.606L824.144 413.449C818.061 413.43 803.933 413.682 798.491 412.982C796.779 413.259 775.749 413.124 773.107 413.041C755.552 412.492 734.468 413.68 717.189 412.294C724.172 411.123 734.22 413.117 742.108 410.756C745.766 409.662 754.662 407.028 756.748 403.703C762.091 403.657 797.798 403.513 800.878 404.232C805.632 403.856 814.326 404.141 819.42 404.149C830.079 404.25 840.738 404.012 851.382 403.436C893.964 401.07 935.81 391.616 977.433 382.927C981.365 382.106 985.085 381.234 988.927 380.044L989.012 372.778C984.802 369.543 981.585 368.096 976.869 365.907C979.906 363.682 983.086 363.847 986.348 361.249Z"/><path fill="#BAB9B9" transform="scale(0.86756 0.867188)" d="M756.748 403.703C762.091 403.657 797.798 403.513 800.878 404.232C808.174 406.475 831.993 403.591 835.464 405.617L834.588 406.494C835.476 408.94 836.303 410.34 838.489 411.876C835.276 412.53 832.413 411.727 829.361 411.936C821.39 412.48 805.931 411.727 798.491 412.982C796.779 413.259 775.749 413.124 773.107 413.041C755.552 412.492 734.468 413.68 717.189 412.294C724.172 411.123 734.22 413.117 742.108 410.756C745.766 409.662 754.662 407.028 756.748 403.703Z"/><defs><linearGradient id="gradient_15" gradientUnits="userSpaceOnUse" x1="777.4718" y1="585.93433" x2="744.89667" y2="544.97076"><stop offset="0" stop-color="#CDCDCD"/><stop offset="1" stop-color="#FAF9F8"/></linearGradient></defs><path fill="url(#gradient_15)" transform="scale(0.86756 0.867188)" d="M790.68 507.413C792.933 507.15 796.367 506.856 798.448 507.712C797.141 512.747 786.363 534.586 783.732 540.094C772.343 564.04 760.815 587.919 749.149 611.732C740.004 611.616 730.857 611.607 721.711 611.706L714.264 611.673C719.165 598.607 737.578 559.171 745.868 548.548C754.074 538.031 779.761 516.171 790.68 507.413Z"/><defs><linearGradient id="gradient_16" gradientUnits="userSpaceOnUse" x1="1105.0148" y1="535.24188" x2="1018.1058" y2="600.54187"><stop offset="0" stop-color="#6E6E6E"/><stop offset="1" stop-color="#B5B4B4"/></linearGradient></defs><path fill="url(#gradient_16)" transform="scale(0.86756 0.867188)" d="M1053.9 536.915C1054.52 537.028 1055.13 537.141 1055.75 537.254C1065.2 532.122 1073.6 524.083 1083.36 519.537C1086.99 521.365 1092.62 518.42 1096.48 520.658L1071.52 573.351C1065.71 585.547 1058.85 599.325 1053.8 611.702C1044.27 611.687 1034.41 611.538 1024.91 611.681C1022.83 611.794 1021.16 612.137 1019.39 611.184C1018.99 608.89 1020.83 606.227 1022 603.783C1024.85 595.784 1034.28 577.969 1038.29 569.602C1042.66 560.46 1049.23 545.166 1053.9 536.915Z"/><path fill="#BAB9B9" transform="scale(0.86756 0.867188)" d="M1022 603.783C1023.89 606.023 1024.82 608.754 1024.91 611.681C1022.83 611.794 1021.16 612.137 1019.39 611.184C1018.99 608.89 1020.83 606.227 1022 603.783Z"/><defs><linearGradient id="gradient_17" gradientUnits="userSpaceOnUse" x1="585.51349" y1="125.42921" x2="735.73077" y2="134.21466"><stop offset="0" stop-color="#4A4A4A"/><stop offset="1" stop-color="#919090"/></linearGradient></defs><path fill="url(#gradient_17)" transform="scale(0.86756 0.867188)" d="M581.684 161.103C625.824 126.951 683.664 100.568 736.93 84.7783C742.782 92.5449 733.156 94.2177 739.163 102.268C684.953 117.629 634.025 142.821 588.915 176.59C587.832 173.407 583.373 164.74 581.684 161.103Z"/><path fill="#BAB9B9" transform="scale(0.86756 0.867188)" d="M835.536 100.71C848.643 98.9859 879.254 101.208 893.228 101.938C886.865 112.259 876.288 135.142 868.881 143.271C871.53 135.635 874.222 128.129 876.37 120.331C861.922 117.642 831.283 117.338 816.215 118.533C789.06 120.603 765.459 124.626 738.915 130.506C738.441 126.197 738.308 122.104 738.13 117.781C772.729 107.713 799.935 103.207 835.536 100.71Z"/><path fill="#E8E7E7" transform="scale(0.86756 0.867188)" d="M931.956 506.84C944.979 506.824 958.001 506.988 971.018 507.334L955.005 520.443C952.163 523.04 948.137 526.942 945.252 529.284C933.347 539.989 921.367 550.61 909.313 561.147C904.815 565.113 896.442 573.096 892.041 576.377C886.738 573.974 886.622 559.465 884.034 554.693C882.17 554.561 880.665 554.244 878.99 554.957C881.039 558.634 880.904 559.685 880.712 563.759L880.222 564.148C878.595 560.986 880.954 560.472 879.676 556.942C877.85 555.445 878.389 555.885 875.651 555.719C878.002 553.307 879.492 551.965 882.113 549.846C893.302 539.436 920.162 514.987 931.956 506.84Z"/><defs><linearGradient id="gradient_18" gradientUnits="userSpaceOnUse" x1="919.1084" y1="520.18909" x2="899.67133" y2="578.29401"><stop offset="0" stop-color="#383738"/><stop offset="1" stop-color="#A1A1A0"/></linearGradient></defs><path fill="url(#gradient_18)" transform="scale(0.86756 0.867188)" d="M882.113 549.846L883.212 550.328C888.33 550.049 930.45 530.311 938.678 526.645C940.852 527.568 943.043 528.448 945.252 529.284C933.347 539.989 921.367 550.61 909.313 561.147C904.815 565.113 896.442 573.096 892.041 576.377C886.738 573.974 886.622 559.465 884.034 554.693C882.17 554.561 880.665 554.244 878.99 554.957C881.039 558.634 880.904 559.685 880.712 563.759L880.222 564.148C878.595 560.986 880.954 560.472 879.676 556.942C877.85 555.445 878.389 555.885 875.651 555.719C878.002 553.307 879.492 551.965 882.113 549.846Z"/><path fill="#333233" transform="scale(0.86756 0.867188)" d="M938.678 526.645C944.397 523.998 949.001 522.464 955.005 520.443C952.163 523.04 948.137 526.942 945.252 529.284C943.043 528.448 940.852 527.568 938.678 526.645Z"/><defs><linearGradient id="gradient_19" gradientUnits="userSpaceOnUse" x1="879.49994" y1="270.33112" x2="860.68317" y2="223.41129"><stop offset="0" stop-color="#E32828"/><stop offset="1" stop-color="#B63737"/></linearGradient></defs><path fill="url(#gradient_19)" transform="scale(0.86756 0.867188)" d="M956.856 183.874L957.2 184.335C953.035 189.347 930.601 206.76 924.434 211.638C905.361 226.746 886.208 241.752 866.976 256.656C854.683 266.183 840.715 276.459 829.06 286.559L829.36 292.948C825.511 292.859 821.511 292.396 817.665 292.024C807.38 279.392 800.75 277.25 788.585 289.711C787.014 290.017 779.005 289.429 776.92 289.313C785.761 271.731 797.967 269.918 815.569 273.09C828.988 266.219 856.351 247.605 869.665 239.076L956.856 183.874Z"/><path fill="#BAB9B9" transform="scale(0.86756 0.867188)" d="M728.824 120.865L729.317 121.281C730.325 124.944 732.863 152.019 732.953 156.24C729.55 148.57 727.341 142.947 724.549 135.076C680.283 145.572 631.15 175.004 594.211 200.488C599.27 207.29 605.052 214.416 610.315 221.124C602.829 216.013 595.426 210.557 587.838 205.38C566.768 220.625 547.061 237.672 528.94 256.328C525.27 260.001 507.183 281.632 505.067 282.498C505.262 281.957 505.488 281.428 505.743 280.913C507.79 276.732 526.524 255.228 530.148 251.131C583.67 190.876 652.233 145.921 728.824 120.865Z"/><path fill="#BAB9B9" transform="scale(0.86756 0.867188)" d="M141.141 489.641C183.694 447.131 256.122 419.442 315.207 410.929C311.556 413.604 306.287 413.984 301.738 414.668C304.427 418.116 306.96 421.404 309.855 424.691C318.706 423.689 327.344 421.423 336.108 422.135C312.245 427.209 290.07 429.334 265.687 436.126C235.46 444.546 208.671 455.279 180.495 469.288C167.205 475.895 154.579 483.164 141.141 489.641Z"/><path fill="#E8E7E7" transform="scale(0.86756 0.867188)" d="M816.784 506.714L858.032 506.729C861.496 521.394 865.638 536.563 869.399 551.207C856.071 557.18 843.233 548.706 831.932 556.021C826.703 540.441 821.675 522.587 816.784 506.714Z"/><defs><linearGradient id="gradient_20" gradientUnits="userSpaceOnUse" x1="1171.1193" y1="301.20883" x2="1110.99" y2="226.43825"><stop offset="0" stop-color="#484849"/><stop offset="1" stop-color="#807F7F"/></linearGradient></defs><path fill="url(#gradient_20)" transform="scale(0.86756 0.867188)" d="M1131.32 209.9C1148.64 242.755 1157.76 275.084 1161.57 311.93C1157.79 309.337 1152.01 312.084 1146.91 311.192C1143.7 280.661 1133.2 250.493 1118.56 223.6C1122.22 217.741 1129.83 212.374 1131.32 209.9Z"/><defs><linearGradient id="gradient_21" gradientUnits="userSpaceOnUse" x1="1121.4144" y1="220.3199" x2="1076.2004" y2="146.96774"><stop offset="0" stop-color="#7E7D7D"/><stop offset="1" stop-color="#C4C3C3"/></linearGradient></defs><path fill="url(#gradient_21)" transform="scale(0.86756 0.867188)" d="M1077.6 143.35C1099.19 162.286 1117.36 184.798 1131.32 209.9C1129.83 212.374 1122.22 217.741 1118.56 223.6C1104.67 198.079 1086.42 175.189 1064.63 155.967C1068.12 152.562 1076.62 147.676 1077.6 143.35Z"/><defs><linearGradient id="gradient_22" gradientUnits="userSpaceOnUse" x1="741.1308" y1="74.514946" x2="817.63928" y2="94.677086"><stop offset="0" stop-color="#908F8F"/><stop offset="1" stop-color="#BBBABA"/></linearGradient></defs><path fill="url(#gradient_22)" transform="scale(0.86756 0.867188)" d="M736.93 84.7783C742.532 83.6466 748.391 81.659 754.016 80.3344C782.937 73.5247 815.844 66.8694 845.631 67.6055C843.907 67.9391 839.17 68.8626 837.615 68.8968C831.533 69.0305 826.74 67.503 822.717 73.7743C820.432 77.3355 818.078 81.8695 815.998 85.6902C819.285 86.6117 833.937 83.5007 840.379 85.2482C829.946 86.3082 819.813 86.8242 809.314 88.0414C785.568 90.7748 762.099 95.5344 739.163 102.268C733.156 94.2177 742.782 92.5449 736.93 84.7783Z"/><defs><linearGradient id="gradient_23" gradientUnits="userSpaceOnUse" x1="952.37183" y1="352.68845" x2="871.54034" y2="310.0246"><stop offset="0" stop-color="#AAA9A9"/><stop offset="1" stop-color="#C9C8C8"/></linearGradient></defs><path fill="url(#gradient_23)" transform="scale(0.86756 0.867188)" d="M865.793 313.099C892.72 318.429 936.118 328.718 961.549 337.637C957.409 341.395 949.438 337.095 937.932 350.372C918.524 343.572 899.599 337.596 879.395 333.572C870.894 331.878 862.033 330.216 853.636 328.153C858.088 326.921 872.231 330.513 877.413 331.685C871.453 324.002 870.366 319.593 865.793 313.099Z"/><path fill="#CA2E2E" transform="scale(0.86756 0.867188)" d="M1193.52 430.201C1194.58 429.977 1198.78 429.812 1200.11 429.737C1198.09 433.723 1194.75 438.59 1192.37 443.141C1197.56 453.705 1199.63 459.638 1203.2 470.696C1186.79 451.998 1176.26 445.892 1151.86 443.244C1142.58 442.762 1117.43 439.006 1108.31 436.653C1135.65 432.961 1164.97 433.712 1193.52 430.201Z"/><path fill="#CA2E2E" transform="scale(0.86756 0.867188)" d="M506.59 650.057C534.194 648.915 527.241 679.053 504.769 683.609C499.81 683.419 494.202 683.217 490.174 680.3C479.512 672.577 488.97 655.403 498.84 651.755C501.549 650.754 503.837 650.435 506.59 650.057ZM506.208 677.511C517.751 671.524 521.827 655.644 504.595 656.589C491.969 661.595 488.731 677.635 506.208 677.511Z"/><path fill="#CA2E2E" transform="scale(0.86756 0.867188)" d="M632.761 650.106C661.012 651.41 649.077 682.236 627.207 683.648C610.288 682.073 605.321 673.077 615.678 657.904C619.552 652.228 626.177 650.72 632.761 650.106ZM630.751 677.049C636.888 674.621 643.032 668.535 640.533 661.413C639.865 659.524 638.43 658.006 636.581 657.234C634.497 656.385 632.287 656.491 630.088 656.574C625.985 657.668 621.856 659.87 620.152 663.798C615.449 674.641 622.389 677.047 630.751 677.049Z"/><path fill="#CA2E2E" transform="scale(0.86756 0.867188)" d="M373.66 650.013C382.958 649.898 415.157 647.815 398.433 665.851C400.01 674.324 401.712 677.587 392.967 681.772C383.808 683.798 373.576 683.326 364.138 683.295C367.324 671.897 370.817 661.739 373.66 650.013ZM373.874 677.02C379.268 676.939 384.822 676.939 390.183 676.507C392.034 674.099 392.025 674.843 392.153 672.213C388.796 668.154 381.365 669.315 376.433 669.597L373.874 677.02ZM377.972 663.327C382.908 663.346 388.398 663.528 393.25 662.95C394.639 660.217 394.849 660.871 394.321 658.421C391.695 655.817 387.226 656.387 383.578 656.401L379.671 656.432L377.972 663.327Z"/><defs><linearGradient id="gradient_24" gradientUnits="userSpaceOnUse" x1="1156.729" y1="383.31107" x2="1151.0874" y2="311.04391"><stop offset="0" stop-color="#1B1B1B"/><stop offset="1" stop-color="#4A494A"/></linearGradient></defs><path fill="url(#gradient_24)" transform="scale(0.86756 0.867188)" d="M1146.91 311.192C1152.01 312.084 1157.79 309.337 1161.57 311.93C1163.54 336.701 1161.08 360.69 1158.15 385.207C1154.69 384.753 1149.85 384.591 1146.28 384.363C1148.12 354.65 1149.82 341.896 1146.91 311.192Z"/><path fill="#E8E7E7" transform="scale(0.86756 0.867188)" d="M265.515 455.073C267.44 454.798 267.1 454.541 268.532 455.258C268.403 457.353 265.465 460.972 264.017 462.559C256.086 471.257 248.614 481.985 238.341 487.998C233.067 491.085 225.266 493.04 219.283 494.78C233.208 485.213 236.983 482.051 245.755 467.57C233.972 469.663 221.598 473.226 210.047 476.401C196.854 480.874 179.154 485.636 165.625 489.519C190.093 472.86 235.909 460.314 265.515 455.073Z"/><path fill="#CA2E2E" transform="scale(0.86756 0.867188)" d="M716.126 649.969C716.793 649.968 717.459 649.977 718.125 649.998C720.417 650.075 722.357 650.102 723.941 651.786C724.127 654.73 717.596 677.454 716.505 683.287L708.65 682.521C710.336 675.458 712.533 667.91 714.441 660.86C710.872 665.307 697.941 685.741 692.258 683.046C689.354 677.223 689.588 668.444 687.202 661.824L686.958 661.165C685.021 667.199 683.787 680.391 677.995 683.019C676.03 683.155 675.738 683.193 673.934 682.435C673.659 677.128 680.134 656.955 681.915 650.364L692.006 650.417C693.683 657.735 695.428 665.038 697.243 672.324C701.958 667.127 711.726 652.131 716.126 649.969Z"/><path fill="#CA2E2E" transform="scale(0.86756 0.867188)" d="M1071.09 664.525C1123.06 662.201 1176.1 666.405 1227.82 667.032C1226.36 667.381 1222.97 667.752 1221.33 667.974C1206.28 670.008 1072.92 671.851 1068.97 668.176C1069.22 666.067 1069.52 666.319 1071.09 664.525Z"/><path fill="#CA2E2E" transform="scale(0.86756 0.867188)" d="M133.645 663.938C157.71 663.803 181.776 663.973 205.837 664.448C224.678 664.961 243.387 666.063 262.273 666.351C256.135 667.835 237.37 667.969 229.851 668.26C193.002 669.486 156.153 670.56 119.268 669.658C114.958 669.553 105.264 670.416 102.561 666.813L103.364 665.842C109.574 663.482 126.101 664.069 133.645 663.938Z"/><path fill="#CA2E2E" transform="scale(0.86756 0.867188)" d="M322.494 649.884C324.928 649.827 327.835 649.683 329.84 650.988C332.388 655.957 337.176 679.68 334.245 684.126C329.554 684.983 327.598 680.328 326.677 676.697L311.155 676.939C309.486 677.612 307.315 681.444 306.16 683.18L298.037 682.787C305.094 672.321 314.325 659.267 322.494 649.884ZM318.183 670.759C320.065 670.849 323.957 671.314 325.394 670.477C325.729 667.94 324.706 661.943 323.391 659.813L322.796 659.431C320.85 661.841 315.97 667.077 316.373 670.139L318.183 670.759Z"/><path fill="#CA2E2E" transform="scale(0.86756 0.867188)" d="M886.321 650.192C892.91 650.066 903.475 649.341 909.808 650.836C910.992 651.116 910.871 651.518 911.37 652.621C909.692 658.619 895.037 656.878 890.008 656.747L888.333 663.435C892.125 663.31 901.205 662.673 904.366 664.067C905.799 666.117 905.476 665.162 905.565 667.684C902.778 671.097 890.305 668.219 886.624 670.364L884.712 676.781C889.666 676.658 901.929 675.057 904.224 679.586C903.761 681.823 904.175 681.32 902.836 682.869C897.309 684.153 881.213 683.461 874.827 683.352C877.773 673.904 880.248 660.54 883.989 651.123C884.313 650.306 885.205 650.401 886.321 650.192Z"/><path fill="#E8E7E7" transform="scale(0.86756 0.867188)" d="M478.078 422.528L483.194 423.361C480.689 424.014 471.447 424.761 468.3 425.116C459.896 425.98 451.548 427.324 443.297 429.141C439.379 430.006 430.431 431.666 428.322 434.971C428.409 442.276 443.759 456.216 449.283 461.716C437.004 454.912 409.946 435.704 398.994 426.713C424.088 426.467 452.967 424.22 478.078 422.528Z"/><path fill="#CA2E2E" transform="scale(0.86756 0.867188)" d="M756.096 650.48L788.526 650.486C786.954 659.737 782.388 674.002 779.638 683.282L772.366 683.064L777.725 663.029C777.963 662.133 778.251 660.958 778.285 660.055C778.48 654.833 765.438 656.52 761.987 656.614C760.601 662.118 757.25 678.833 752.765 682.694C751.714 683.599 749.956 682.949 748.433 682.674L747.862 681.695C748.684 673.608 753.634 658.684 756.096 650.48Z"/><path fill="#CA2E2E" transform="scale(0.86756 0.867188)" d="M824.505 650.187C833.454 650.515 843.163 650.429 852.17 650.496C850.809 660.468 846.77 673.208 843.94 683.063L836.321 683.065C838.116 676.88 842.306 663.328 842.425 657.461L841.415 656.813L829.471 656.693C827.519 664.416 821.12 688.478 809.412 683.11C808.214 681.067 808.397 681.996 808.758 679.613C810.096 677.438 811.83 677.099 814.255 676.207C818.891 669.187 822.182 658.12 824.505 650.187Z"/><path fill="#CA2E2E" transform="scale(0.86756 0.867188)" d="M1014.47 650.043C1020.92 649.967 1032.12 651.593 1032.36 659.927C1031.47 662.074 1032.07 661.402 1030.19 662.551C1023.85 663.265 1013.28 646.825 1005.02 664.648C998.94 677.753 1010.12 679.21 1019.67 674.148C1022.17 672.484 1024.78 670.136 1027.49 672.165C1027.62 673.831 1027.54 675.415 1026.35 676.732C1011.5 693.274 984.49 680.893 999.516 658.479C1003.3 652.829 1007.9 651.144 1014.47 650.043Z"/><path fill="#CA2E2E" transform="scale(0.86756 0.867188)" d="M965.785 650.566L975.147 650.408C968.77 655.874 962.889 660.868 956.236 666.017C958.712 669.248 961.312 673.733 963.496 677.263L966.628 683.327C951.231 683.354 957.923 677.724 948.273 669.413C947.654 668.88 946.827 669.501 946.075 669.832C943.316 673.044 942.036 679.153 941.093 683.317L933.143 683.195C936.468 672.399 939.421 661.491 941.996 650.492C944.228 650.405 945.101 650.354 947.382 650.711C950.338 653.982 947.958 658.416 947.813 664.787C953.217 661.491 959.706 654.759 965.785 650.566Z"/><path fill="#CA2E2E" transform="scale(0.86756 0.867188)" d="M580.717 650.518C583.748 650.331 587.532 650.389 590.626 650.35C584.311 655.673 578.111 661.131 572.031 666.721C574.045 670.247 576.136 673.458 578.336 676.861L581.94 683.394L573.615 683.378C570.878 679.006 566.821 669.342 561.169 670.434C557.457 673.347 557.263 678.586 556.383 683.324L547.979 683.335C552.11 671.778 554.683 662.256 557.602 650.468L565.527 650.625C564.482 654.114 561.733 660.406 565.125 662.799C568.622 662.586 577.121 653.634 580.717 650.518Z"/><path fill="#CA2E2E" transform="scale(0.86756 0.867188)" d="M433.573 649.999C439.374 649.948 459.356 649.311 463.487 651.384L464.068 653.197C462.825 658.476 455.327 657.171 450.802 657.111C449.573 662.822 447.916 668.39 446.311 674.005C445.626 676.835 445.013 680.993 442.606 682.608C440.427 683.077 438.705 683.731 436.689 683.001C436.679 679.864 442.127 661.303 443.296 657.168C439.478 657.176 432.462 657.986 431.349 653.544C431.884 651.68 432.224 651.423 433.573 649.999Z"/><defs><linearGradient id="gradient_25" gradientUnits="userSpaceOnUse" x1="517.85187" y1="297.02164" x2="490.5372" y2="282.22385"><stop offset="0" stop-color="#CDCDCD"/><stop offset="1" stop-color="#FDFCFD"/></linearGradient></defs><path fill="url(#gradient_25)" transform="scale(0.86756 0.867188)" d="M492.06 277.871C498.235 280.928 515.732 291.706 522.274 295.757L520.691 295.995C509.721 293.05 497.995 290.117 487.342 286.373C488.891 283.526 490.464 280.692 492.06 277.871Z"/><path fill="#A53837" transform="scale(0.86756 0.867188)" d="M1077.44 268.233C1081.16 268.432 1082.79 268.054 1085.54 270.353C1075.17 273.591 1063.69 277.625 1053.06 279.208C1060.94 275.025 1069.17 271.549 1077.44 268.233Z"/><path fill="#606061" fill-opacity="0.74117649" transform="scale(0.86756 0.867188)" d="M478.078 422.528C482.332 422.057 485.785 421.431 489.842 422.843C488.225 423.486 484.936 423.507 483.194 423.361L478.078 422.528Z"/></svg>